<?xml version="1.0" standalone="no"?><!DOCTYPE svg PUBLIC "-//W3C//DTD SVG 1.1//EN" "http://www.w3.org/Graphics/SVG/1.1/DTD/svg11.dtd"><svg t="1723429140318" class="icon" viewBox="0 0 1024 1024" version="1.1" xmlns="http://www.w3.org/2000/svg" p-id="6147" xmlns:xlink="http://www.w3.org/1999/xlink" width="200" height="200"><path d="M789.333333 512l22.613334-22.613333L789.333333 512l-22.613333 22.613333L789.333333 512z m0 45.248l-94.72 94.72c-30.165333 30.165333-75.413333-15.082667-45.226666-45.269333L744.064 512l-94.72-94.72c-30.165333-30.165333 15.082667-75.413333 45.269333-45.226667L789.333333 466.730667l94.72-94.72c30.165333-30.165333 75.413333 15.082667 45.226667 45.269333L834.602667 512l94.72 94.72c30.165333 30.165333-15.082667 75.413333-45.269334 45.226667L789.333333 557.269333zM417.216 813.312l-159.488-123.008a46.869333 46.869333 0 0 0-25.386667-7.338667H170.666667a85.333333 85.333333 0 0 1-85.333334-85.333333v-171.264a85.333333 85.333333 0 0 1 85.333334-85.333333h61.696c9.130667 0 18.048-2.581333 25.365333-7.338667l159.488-123.008A85.333333 85.333333 0 0 1 554.666667 278.250667v467.498666a85.333333 85.333333 0 0 1-137.450667 67.562667zM469.333333 767.082667a21.333333 21.333333 0 0 0 21.333334-21.333334V278.250667a21.333333 21.333333 0 0 0-34.346667-16.896l-159.509333 123.029333a64 64 0 0 1-4.224 2.986667 110.762667 110.762667 0 0 1-60.224 17.664H170.666667a21.333333 21.333333 0 0 0-21.333334 21.333333v171.264a21.333333 21.333333 0 0 0 21.333334 21.333333h61.696c21.333333 0 42.389333 6.101333 60.202666 17.642667a64 64 0 0 1 4.245334 3.008l159.488 123.029333a21.333333 21.333333 0 0 0 13.034666 4.437334z" fill="#ffffff" p-id="6148"></path></svg>