<?xml version="1.0" standalone="no"?><!DOCTYPE svg PUBLIC "-//W3C//DTD SVG 1.1//EN" "http://www.w3.org/Graphics/SVG/1.1/DTD/svg11.dtd"><svg t="1723429085055" class="icon" viewBox="0 0 1024 1024" version="1.1" xmlns="http://www.w3.org/2000/svg" p-id="5111" xmlns:xlink="http://www.w3.org/1999/xlink" width="200" height="200"><path d="M572.501333 89.216A42.666667 42.666667 0 0 1 597.333333 128v768a42.666667 42.666667 0 0 1-70.4 32.426667L240.213333 682.666667H128a42.666667 42.666667 0 0 1-42.666667-42.666667V384a42.666667 42.666667 0 0 1 42.666667-42.666667h112.213333l286.72-245.76a42.666667 42.666667 0 0 1 45.568-6.357333zM512 220.8L283.733333 416.426667A42.666667 42.666667 0 0 1 256 426.666667H170.666667v170.666666h85.333333a42.666667 42.666667 0 0 1 27.733333 10.24L512 803.285333V220.757333z m225.834667 5.077333a42.666667 42.666667 0 0 1 60.330666 0l0.085334 0.042667 0.042666 0.085333 0.170667 0.170667 0.426667 0.426667a106.624 106.624 0 0 1 4.864 5.333333c2.986667 3.413333 7.04 8.277333 11.690666 14.506667 9.386667 12.458667 21.461333 30.634667 33.365334 54.528C872.789333 348.8 896 419.285333 896 512s-23.210667 163.2-47.189333 211.072c-11.946667 23.893333-23.978667 42.069333-33.322667 54.528a249.472 249.472 0 0 1-16.597333 19.84l-0.426667 0.426667-0.170667 0.170666-0.042666 0.085334h-0.042667v0.042666a42.666667 42.666667 0 0 1-60.586667-60.16l0.213334-0.170666 1.706666-1.92c1.706667-1.92 4.352-5.12 7.68-9.514667a272.64 272.64 0 0 0 25.301334-41.472c18.688-37.461333 38.144-94.976 38.144-172.928s-19.456-135.466667-38.144-172.928a272.768 272.768 0 0 0-25.344-41.472 165.888 165.888 0 0 0-9.386667-11.434667l-0.170667-0.213333a42.666667 42.666667 0 0 1 0.213334-60.16z m-85.333334 128a42.666667 42.666667 0 0 1 60.330667 0l0.085333 0.042667 0.042667 0.085333 0.128 0.128 0.341333 0.341334 0.853334 0.853333 2.346666 2.602667a200.405333 200.405333 0 0 1 25.557334 38.997333c13.226667 26.581333 25.813333 65.066667 25.813333 115.114667s-12.544 88.533333-25.856 115.072c-6.570667 13.226667-13.312 23.381333-18.688 30.549333a144.341333 144.341333 0 0 1-9.173333 11.093333l-0.853334 0.853334-0.341333 0.341333-0.128 0.128-0.085333 0.085333a42.666667 42.666667 0 0 1-60.501334-60.202666 114.816 114.816 0 0 0 13.44-20.992c8.106667-16.128 16.853333-41.642667 16.853334-76.928s-8.789333-60.8-16.810667-76.928a114.901333 114.901333 0 0 0-13.482667-20.992 42.666667 42.666667 0 0 1 0.085334-60.245334z" fill="#ffffff" p-id="5112"></path></svg>