<?xml version="1.0" standalone="no"?><!DOCTYPE svg PUBLIC "-//W3C//DTD SVG 1.1//EN" "http://www.w3.org/Graphics/SVG/1.1/DTD/svg11.dtd"><svg t="1723425955616" class="icon" viewBox="0 0 1024 1024" version="1.1" xmlns="http://www.w3.org/2000/svg" p-id="7604" xmlns:xlink="http://www.w3.org/1999/xlink" width="200" height="200"><path d="M0 0h1024v1024H0z" fill="#FFFFFF" p-id="7605"></path><path d="M784.768 214.496a32 32 0 1 0-33.568 54.464l33.6-54.464z m-33.568 572.544a32 32 0 1 0 33.6 54.464l-33.6-54.464z m5.664-363.296a32 32 0 1 0-41.728 48.512l41.728-48.512z m-41.728 160a32 32 0 1 0 41.728 48.512l-41.728-48.512z m-267.712-437.76l-21.536-23.68 21.536 23.68z m0 732.032l-21.536 23.68 21.536-23.68zM265.152 712.32l21.536-23.68-21.536 23.68z m0-400.64L243.616 288l21.536 23.68z m486.08-42.72A303.808 303.808 0 0 1 896 528h64c0-132.608-70.144-248.8-175.232-313.504l-33.568 54.464zM896 528a303.808 303.808 0 0 1-144.768 259.04l33.568 54.464A367.776 367.776 0 0 0 960 528h-64z m-180.864-55.744c10.688 9.216 20.864 29.184 20.864 55.744h64c0-41.088-15.424-80.416-43.136-104.256l-41.728 48.512zM736 528c0 26.56-10.176 46.528-20.864 55.744l41.728 48.512C784.576 608.416 800 569.088 800 528h-64zM128 576v-128H64v128h64z m96-224h19.616V288H224v64z m19.616 320H224v64h19.616v-64zM64 576a160 160 0 0 0 160 160v-64a96 96 0 0 1-96-96H64z m64-128a96 96 0 0 1 96-96V288a160 160 0 0 0-160 160h64z m158.688-112.64l182.272-165.696-43.072-47.36L243.616 288l43.072 47.36zM576 217.024v589.952h64V217.024h-64z m-107.04 637.312L286.688 688.64 243.616 736l182.272 165.696 43.072-47.36zM576 806.976c0 55.584-65.92 84.736-107.04 47.36l-43.072 47.36c82.24 74.752 214.112 16.416 214.112-94.72h-64zM468.96 169.664C510.048 132.288 576 161.44 576 217.024h64c0-111.136-131.872-169.472-214.08-94.72l43.04 47.36zM243.616 736l43.072-47.36A64 64 0 0 0 243.616 672v64z m0-384a64 64 0 0 0 43.072-16.64L243.616 288v64z" fill="#000000" p-id="7606"></path></svg>