<?xml version="1.0" standalone="no"?><!DOCTYPE svg PUBLIC "-//W3C//DTD SVG 1.1//EN" "http://www.w3.org/Graphics/SVG/1.1/DTD/svg11.dtd"><svg t="1727278687853" class="icon" viewBox="0 0 1024 1024" version="1.1" xmlns="http://www.w3.org/2000/svg" p-id="20420" xmlns:xlink="http://www.w3.org/1999/xlink" width="200" height="200"><path d="M139.39 538.07c0-57.4 6.77-163.08 17.31-210.53 12.53-56.38 57.95-99.55 114.89-109.2 75.98-12.88 143.02-19.83 219.82-19.83 48.83 0 88.69 85.25 136.18 91.44L466.87 419.28 139.39 538.07z" fill="#A2B6D6" p-id="20421"></path><path d="M274.01 792.29c-57.8-8.8-103.91-48.19-116.63-99.62-23.54-95.19-23.54-193.86 0-289.05 12.72-51.43 58.83-90.82 116.63-99.62 158.44-24.13 320.27-24.13 478.71 0 57.8 8.8 103.91 48.19 116.63 99.62 23.54 95.19 23.54 193.86 0 289.05-12.72 51.43-58.83 90.82-116.63 99.62-158.44 24.13-320.27 24.13-478.71 0z" fill="#6B8EC2" p-id="20422"></path><path d="M630.06 578.15h-233.4c-16.57 0-30-13.43-30-30s13.43-30 30-30h233.4c16.57 0 30 13.43 30 30s-13.43 30-30 30z" fill="#FFFFFF" p-id="20423"></path><path d="M513.36 694.84c-16.57 0-30-13.43-30-30v-233.4c0-16.57 13.43-30 30-30s30 13.43 30 30v233.4c0 16.57-13.43 30-30 30z" fill="#FFFFFF" p-id="20424"></path></svg>